# xmcd CD database file generated by Grip 3.2.0
# 
# Track frame offsets:
#       150
#       22912
#       34935
#       43210
#       57672
#       67590
#       78467
#       90000
#       105185
#       114520
#       127457
#       139562
#       151662
# 
# Disc length: 2780 seconds
# 
# Revision: 4
# Processed by: cddbd v1.5.2PL0 Copyright (c) Steve Scherf et al.
# Submitted via: Grip 3.2.0
# 
DISCID=9b0ada0d
DTITLE=Creedence Clearwater Revival - Live in Europe
DYEAR=1973
DGENRE=Rock
TTITLE0=Born on the Bayou
TTITLE1=Green River (Medley Pt. 1)
TTITLE2=Suzie Q. (Medley Pt. 2)
TTITLE3=It Came Out of the Sky
TTITLE4=Travelin' Band
TTITLE5=Fortunate Son
TTITLE6=Commotion
TTITLE7=Lodi
TTITLE8=Bad Moon Rising
TTITLE9=Proud Mary
TTITLE10=Up Around the Bend
TTITLE11=Hey Tonight
TTITLE12=Keep on Chooglin'
EXTD=Year - 1973\n\n
EXTT0=
EXTT1=
EXTT2=
EXTT3=
EXTT4=
EXTT5=
EXTT6=
EXTT7=
EXTT8=
EXTT9=
EXTT10=
EXTT11=
EXTT12=
PLAYORDER=
